<?xml version="1.0" encoding="utf-8"?>
<!-- Generator: Adobe Illustrator 21.1.0, SVG Export Plug-In . SVG Version: 6.00 Build 0)  -->
<svg version="1.1" id="Layer_1" xmlns="http://www.w3.org/2000/svg" xmlns:xlink="http://www.w3.org/1999/xlink" x="0px" y="0px"
	 viewBox="0 0 500 463.8" style="enable-background:new 0 0 500 463.8;" xml:space="preserve">
<style type="text/css">
	.st0{opacity:0.4;fill:#FDD2A5;}
	.st1{fill:#CDD4D9;stroke:#626E7F;stroke-width:1.5;stroke-linecap:round;stroke-linejoin:round;stroke-miterlimit:10;}
	.st2{fill:#FFFFFF;stroke:#626E7F;stroke-width:1.5;stroke-linecap:round;stroke-linejoin:round;stroke-miterlimit:10;}
	.st3{fill:#B4C7D1;stroke:#626E7F;stroke-width:1.5;stroke-linecap:round;stroke-linejoin:round;stroke-miterlimit:10;}
	.st4{fill:#FFE4C8;stroke:#626E7F;stroke-width:1.5;stroke-linecap:round;stroke-linejoin:round;stroke-miterlimit:10;}
	.st5{fill:#ACB6C0;}
	.st6{fill:#FDD2A5;stroke:#626E7F;stroke-width:1.5;stroke-linecap:round;stroke-linejoin:round;stroke-miterlimit:10;}
	.st7{fill:none;stroke:#626E7F;stroke-width:15;stroke-linecap:round;stroke-linejoin:round;stroke-miterlimit:10;}
	.st8{fill:#FAAD81;}
	.st9{fill:#6A82BD;}
</style>
<g>
	<path class="st0" d="M2.5,219c1.1,62.9,65.4,112.8,143.6,111.5c1.3,0,2.6-0.1,3.9-0.1c17.6,60.5,86,104.8,167,103.5
		c93.4-1.6,168-63.4,166.8-138.1c-0.9-55.5-43.6-102.4-103.8-122.2c4.9-13.2,7.5-27.4,7.3-42.2c-1.1-67.2-60.3-120.7-132.1-119.4
		c-59.8,1-109.5,39.7-123.8,91.3C58.3,108.9,1.4,159,2.5,219z"/>
	<path class="st1" d="M419.8,334.1L249.1,442.3c-6.7,4.2-15.6,2.2-19.9-4.5L66.6,181.2c-4.2-6.7-2.2-15.6,4.5-19.9L241.7,53.1
		c6.7-4.2,15.6-2.2,19.9,4.5l162.7,256.7C428.5,321,426.5,329.9,419.8,334.1z"/>
	<path class="st2" d="M408,323.5L244.5,427.1c-1.8,1.1-4.2,0.6-5.4-1.2L100.2,206.7c-1.1-1.8-0.6-4.2,1.2-5.4L264.9,97.7
		c1.8-1.1,4.2-0.6,5.4,1.2l138.9,219.2C410.3,319.9,409.8,322.3,408,323.5z"/>
	<path class="st3" d="M211.3,63l-42.1,26.7c-0.2-0.5-0.5-0.9-0.8-1.4c-6-9.4-18.5-12.3-27.9-6.3c-9.4,6-12.3,18.5-6.3,27.9
		c0.3,0.4,0.6,0.9,0.9,1.3L92.9,138c-4.2,2.7-5.4,8.2-2.8,12.4l8.2,12.9c5,7.9,15.6,10.3,23.4,5.3l104.8-66.4
		c7.9-5,10.3-15.6,5.3-23.4l-8.2-12.9C221,61.6,215.5,60.4,211.3,63z M153.8,103.2c-3.1,1.9-7.1,1-9.1-2s-1-7.1,2-9.1
		c3.1-1.9,7.1-1,9.1,2S156.9,101.3,153.8,103.2z"/>
	
		<rect x="125.3" y="203.7" transform="matrix(0.8446 -0.5353 0.5353 0.8446 -94.8114 108.239)" class="st4" width="27.5" height="27.5"/>
	
		<rect x="145.6" y="161.6" transform="matrix(0.8446 -0.5353 0.5353 0.8446 -55.4868 137.6339)" class="st5" width="127.6" height="5.7"/>
	
		<rect x="154.1" y="179.1" transform="matrix(0.8446 -0.5353 0.5353 0.8446 -65.7539 137.3389)" class="st5" width="99.3" height="5.7"/>
	
		<rect x="147.4" y="238.6" transform="matrix(0.8446 -0.5353 0.5353 0.8446 -110.0467 125.489)" class="st4" width="27.5" height="27.5"/>
	
		<rect x="171" y="207.9" transform="matrix(0.8446 -0.5353 0.5353 0.8446 -79.6502 146.9984)" class="st5" width="84.9" height="5.7"/>
	
		<rect x="175.7" y="212.4" transform="matrix(0.8446 -0.5353 0.5353 0.8446 -79.7439 155.6886)" class="st5" width="105.2" height="5.7"/>
	
		<rect x="169.5" y="273.5" transform="matrix(0.8446 -0.5353 0.5353 0.8446 -125.2819 142.7389)" class="st4" width="27.5" height="27.5"/>
	
		<rect x="192.8" y="241.6" transform="matrix(0.8446 -0.5353 0.5353 0.8446 -93.9661 165.0602)" class="st5" width="89.3" height="5.7"/>
	
		<rect x="200.3" y="255.7" transform="matrix(0.8446 -0.5353 0.5353 0.8446 -101.5637 167.1231)" class="st5" width="73.7" height="5.7"/>
	
		<rect x="191.6" y="308.3" transform="matrix(0.8446 -0.5353 0.5353 0.8446 -140.5172 159.9888)" class="st4" width="27.5" height="27.5"/>
	
		<rect x="216.1" y="280.6" transform="matrix(0.8446 -0.5353 0.5353 0.8446 -112.446 179.4445)" class="st5" width="73.7" height="5.7"/>
	
		<rect x="221.6" y="287.7" transform="matrix(0.8446 -0.5353 0.5353 0.8446 -114.5811 186.3319)" class="st5" width="84.3" height="5.7"/>
	
		<rect x="213.7" y="343.2" transform="matrix(0.8446 -0.5353 0.5353 0.8446 -155.7524 177.2388)" class="st4" width="27.5" height="27.5"/>
	
		<rect x="236.7" y="310.5" transform="matrix(0.8446 -0.5353 0.5353 0.8446 -123.8206 200.1042)" class="st5" width="92.2" height="5.7"/>
	
		<rect x="242.3" y="317.8" transform="matrix(0.8446 -0.5353 0.5353 0.8446 -126.0583 206.9009)" class="st5" width="102.3" height="5.7"/>
	
		<rect x="235.8" y="378.1" transform="matrix(0.8446 -0.5353 0.5353 0.8446 -170.9877 194.4887)" class="st4" width="27.5" height="27.5"/>
	
		<rect x="256.8" y="338.2" transform="matrix(0.8446 -0.5353 0.5353 0.8446 -133.4393 222.3147)" class="st5" width="119.1" height="5.7"/>
	
		<rect x="262" y="344.4" transform="matrix(0.8446 -0.5353 0.5353 0.8446 -134.8659 229.8278)" class="st5" width="133.1" height="5.7"/>
	<circle class="st6" cx="351.5" cy="209" r="72.5"/>
	<polyline class="st7" points="319.2,219 340.4,240.2 386.2,178 	"/>
	<path class="st8" d="M331.8,95.9c-3.9,0-7-3.2-7-7c0-3.9,3.2-7,7-7c3.9,0,7,3.2,7,7C338.9,92.7,335.7,95.9,331.8,95.9z M331.8,85.6
		c-1.8,0-3.3,1.5-3.3,3.3c0,1.8,1.5,3.3,3.3,3.3s3.3-1.5,3.3-3.3C335.1,87,333.6,85.6,331.8,85.6z"/>
	<path class="st8" d="M454,208.9c-3.9,0-7-3.2-7-7c0-3.9,3.2-7,7-7c3.9,0,7,3.2,7,7C461.1,205.7,457.9,208.9,454,208.9z M454,198.6
		c-1.8,0-3.3,1.5-3.3,3.3c0,1.8,1.5,3.3,3.3,3.3s3.3-1.5,3.3-3.3C457.3,200,455.8,198.6,454,198.6z"/>
	<g>
		<path class="st9" d="M421.7,122.1c-0.5,0-1-0.2-1.3-0.6l-9.2-9.2c-0.7-0.7-0.7-1.9,0-2.7c0.7-0.7,1.9-0.7,2.7,0l9.2,9.2
			c0.7,0.7,0.7,1.9,0,2.7C422.7,121.9,422.2,122.1,421.7,122.1z"/>
		<path class="st9" d="M412.5,122.1c-0.5,0-1-0.2-1.3-0.6c-0.7-0.7-0.7-1.9,0-2.7l9.2-9.2c0.7-0.7,1.9-0.7,2.7,0
			c0.7,0.7,0.7,1.9,0,2.7l-9.2,9.2C413.5,121.9,413,122.1,412.5,122.1z"/>
	</g>
	<path class="st8" d="M109.5,358.8c-3.9,0-7-3.2-7-7c0-3.9,3.2-7,7-7c3.9,0,7,3.2,7,7C116.6,355.7,113.4,358.8,109.5,358.8z
		 M109.5,348.5c-1.8,0-3.3,1.5-3.3,3.3s1.5,3.3,3.3,3.3c1.8,0,3.3-1.5,3.3-3.3S111.3,348.5,109.5,348.5z"/>
	<g>
		<path class="st9" d="M79.1,271c-0.5,0-1-0.2-1.3-0.6l-9.2-9.2c-0.7-0.7-0.7-1.9,0-2.7c0.7-0.7,1.9-0.7,2.7,0l9.2,9.2
			c0.7,0.7,0.7,1.9,0,2.7C80.1,270.8,79.6,271,79.1,271z"/>
		<path class="st9" d="M69.9,271c-0.5,0-1-0.2-1.3-0.6c-0.7-0.7-0.7-1.9,0-2.7l9.2-9.2c0.7-0.7,1.9-0.7,2.7,0c0.7,0.7,0.7,1.9,0,2.7
			l-9.2,9.2C70.9,270.8,70.4,271,69.9,271z"/>
	</g>
	<path class="st8" d="M19.7,212.1c-3.9,0-7-3.2-7-7c0-3.9,3.2-7,7-7c3.9,0,7,3.2,7,7C26.7,209,23.5,212.1,19.7,212.1z M19.7,201.8
		c-1.8,0-3.3,1.5-3.3,3.3s1.5,3.3,3.3,3.3c1.8,0,3.3-1.5,3.3-3.3S21.5,201.8,19.7,201.8z"/>
	<g>
		<path class="st9" d="M66.6,113.6c-0.5,0-1-0.2-1.3-0.6l-9.2-9.2c-0.7-0.7-0.7-1.9,0-2.7c0.7-0.7,1.9-0.7,2.7,0l9.2,9.2
			c0.7,0.7,0.7,1.9,0,2.7C67.5,113.4,67.1,113.6,66.6,113.6z"/>
		<path class="st9" d="M57.4,113.6c-0.5,0-1-0.2-1.3-0.6c-0.7-0.7-0.7-1.9,0-2.7l9.2-9.2c0.7-0.7,1.9-0.7,2.7,0
			c0.7,0.7,0.7,1.9,0,2.7l-9.2,9.2C58.3,113.4,57.8,113.6,57.4,113.6z"/>
	</g>
	<path class="st8" d="M435.6,374.8c-3.9,0-7-3.2-7-7c0-3.9,3.2-7,7-7c3.9,0,7,3.2,7,7C442.7,371.6,439.5,374.8,435.6,374.8z
		 M435.6,364.5c-1.8,0-3.3,1.5-3.3,3.3s1.5,3.3,3.3,3.3s3.3-1.5,3.3-3.3S437.4,364.5,435.6,364.5z"/>
	<g>
		<path class="st9" d="M357.5,412.6c-0.5,0-1-0.2-1.3-0.6l-9.2-9.2c-0.7-0.7-0.7-1.9,0-2.7c0.7-0.7,1.9-0.7,2.7,0l9.2,9.2
			c0.7,0.7,0.7,1.9,0,2.7C358.4,412.4,358,412.6,357.5,412.6z"/>
		<path class="st9" d="M348.3,412.6c-0.5,0-1-0.2-1.3-0.6c-0.7-0.7-0.7-1.9,0-2.7l9.2-9.2c0.7-0.7,1.9-0.7,2.7,0
			c0.7,0.7,0.7,1.9,0,2.7l-9.2,9.2C349.2,412.4,348.7,412.6,348.3,412.6z"/>
	</g>
	<path class="st8" d="M118.7,51.1c-3.9,0-7-3.2-7-7c0-3.9,3.2-7,7-7c3.9,0,7,3.2,7,7C125.7,47.9,122.5,51.1,118.7,51.1z M118.7,40.8
		c-1.8,0-3.3,1.5-3.3,3.3s1.5,3.3,3.3,3.3c1.8,0,3.3-1.5,3.3-3.3S120.5,40.8,118.7,40.8z"/>
	<g>
		<path class="st9" d="M223.7,45.8c-0.5,0-1-0.2-1.3-0.6l-9.2-9.2c-0.7-0.7-0.7-1.9,0-2.7c0.7-0.7,1.9-0.7,2.7,0l9.2,9.2
			c0.7,0.7,0.7,1.9,0,2.7C224.7,45.6,224.2,45.8,223.7,45.8z"/>
		<path class="st9" d="M214.5,45.8c-0.5,0-1-0.2-1.3-0.6c-0.7-0.7-0.7-1.9,0-2.7l9.2-9.2c0.7-0.7,1.9-0.7,2.7,0
			c0.7,0.7,0.7,1.9,0,2.7l-9.2,9.2C215.5,45.6,215,45.8,214.5,45.8z"/>
	</g>
	<path class="st8" d="M325.5,14.1c-3.9,0-7-3.2-7-7c0-3.9,3.2-7,7-7c3.9,0,7,3.2,7,7C332.6,10.9,329.4,14.1,325.5,14.1z M325.5,3.8
		c-1.8,0-3.3,1.5-3.3,3.3s1.5,3.3,3.3,3.3s3.3-1.5,3.3-3.3S327.3,3.8,325.5,3.8z"/>
	<g>
		<path class="st9" d="M447.7,299.3c-0.5,0-1-0.2-1.3-0.6l-9.2-9.2c-0.7-0.7-0.7-1.9,0-2.7c0.7-0.7,1.9-0.7,2.7,0l9.2,9.2
			c0.7,0.7,0.7,1.9,0,2.7C448.7,299.1,448.2,299.3,447.7,299.3z"/>
		<path class="st9" d="M438.5,299.3c-0.5,0-1-0.2-1.3-0.6c-0.7-0.7-0.7-1.9,0-2.7l9.2-9.2c0.7-0.7,1.9-0.7,2.7,0
			c0.7,0.7,0.7,1.9,0,2.7l-9.2,9.2C439.5,299.1,439,299.3,438.5,299.3z"/>
	</g>
	<path class="st8" d="M286.2,463.8c-3.9,0-7-3.2-7-7c0-3.9,3.2-7,7-7c3.9,0,7,3.2,7,7C293.2,460.6,290.1,463.8,286.2,463.8z
		 M286.2,453.5c-1.8,0-3.3,1.5-3.3,3.3s1.5,3.3,3.3,3.3s3.3-1.5,3.3-3.3S288,453.5,286.2,453.5z"/>
	<g>
		<path class="st9" d="M169.6,441.5c-0.5,0-1-0.2-1.3-0.6l-9.2-9.2c-0.7-0.7-0.7-1.9,0-2.7c0.7-0.7,1.9-0.7,2.7,0l9.2,9.2
			c0.7,0.7,0.7,1.9,0,2.7C170.6,441.3,170.1,441.5,169.6,441.5z"/>
		<path class="st9" d="M160.4,441.5c-0.5,0-1-0.2-1.3-0.6c-0.7-0.7-0.7-1.9,0-2.7l9.2-9.2c0.7-0.7,1.9-0.7,2.7,0
			c0.7,0.7,0.7,1.9,0,2.7l-9.2,9.2C161.3,441.3,160.9,441.5,160.4,441.5z"/>
	</g>
	<g>
		<path class="st9" d="M498.1,360.6c-0.5,0-1-0.2-1.3-0.6l-9.2-9.2c-0.7-0.7-0.7-1.9,0-2.7c0.7-0.7,1.9-0.7,2.7,0l9.2,9.2
			c0.7,0.7,0.7,1.9,0,2.7C499.1,360.4,498.6,360.6,498.1,360.6z"/>
		<path class="st9" d="M488.9,360.6c-0.5,0-1-0.2-1.3-0.6c-0.7-0.7-0.7-1.9,0-2.7l9.2-9.2c0.7-0.7,1.9-0.7,2.7,0
			c0.7,0.7,0.7,1.9,0,2.7l-9.2,9.2C489.9,360.4,489.4,360.6,488.9,360.6z"/>
	</g>
	<path class="st8" d="M7,323.5c-3.9,0-7-3.2-7-7c0-3.9,3.2-7,7-7c3.9,0,7,3.2,7,7C14.1,320.3,10.9,323.5,7,323.5z M7,313.2
		c-1.8,0-3.3,1.5-3.3,3.3s1.5,3.3,3.3,3.3s3.3-1.5,3.3-3.3S8.8,313.2,7,313.2z"/>
</g>
</svg>
